<?xml version="1.0" encoding="UTF-8" standalone="no"?>
<!DOCTYPE svg PUBLIC "-//W3C//DTD SVG 1.1//EN"
 "http://www.w3.org/Graphics/SVG/1.1/DTD/svg11.dtd">
<!-- Generated by graphviz version 2.40.1 (20161225.0304)
 -->
<!-- Title: G Pages: 1 -->
<svg width="1959pt" height="791pt"
 viewBox="0.00 0.00 1958.78 791.03" xmlns="http://www.w3.org/2000/svg" xmlns:xlink="http://www.w3.org/1999/xlink">
<g id="graph0" class="graph" transform="scale(1 1) rotate(0) translate(4 787.0336)">
<title>G</title>
<polygon fill="#ffffff" stroke="transparent" points="-4,4 -4,-787.0336 1954.7817,-787.0336 1954.7817,4 -4,4"/>
<g id="clust1" class="cluster">
<title>cluster7</title>
<polygon fill="none" stroke="#000000" stroke-width="3" points="680.3553,-453.3869 680.3553,-775.0336 1361.3553,-775.0336 1361.3553,-453.3869 680.3553,-453.3869"/>
</g>
<!-- posx -->
<g id="node1" class="node">
<title>posx</title>
<ellipse fill="none" stroke="#000000" cx="35.3553" cy="-729.557" rx="35.2113" ry="26.7407"/>
<text text-anchor="middle" x="35.3553" y="-733.357" font-family="Times,serif" font-size="14.00" fill="#000000">posx: </text>
<text text-anchor="middle" x="35.3553" y="-718.357" font-family="Times,serif" font-size="14.00" fill="#000000"> PUT </text>
</g>
<!-- posy -->
<g id="node2" class="node">
<title>posy</title>
<ellipse fill="none" stroke="#000000" cx="124.3553" cy="-729.557" rx="35.2113" ry="26.7407"/>
<text text-anchor="middle" x="124.3553" y="-733.357" font-family="Times,serif" font-size="14.00" fill="#000000">posy: </text>
<text text-anchor="middle" x="124.3553" y="-718.357" font-family="Times,serif" font-size="14.00" fill="#000000"> PUT </text>
</g>
<!-- posz -->
<g id="node3" class="node">
<title>posz</title>
<ellipse fill="none" stroke="#000000" cx="213.3553" cy="-729.557" rx="35.2113" ry="26.7407"/>
<text text-anchor="middle" x="213.3553" y="-733.357" font-family="Times,serif" font-size="14.00" fill="#000000">posz: </text>
<text text-anchor="middle" x="213.3553" y="-718.357" font-family="Times,serif" font-size="14.00" fill="#000000"> PUT </text>
</g>
<!-- Box -->
<g id="node4" class="node">
<title>Box</title>
<ellipse fill="none" stroke="#000000" cx="302.3553" cy="-729.557" rx="35.2113" ry="26.7407"/>
<text text-anchor="middle" x="302.3553" y="-733.357" font-family="Times,serif" font-size="14.00" fill="#000000">Box: </text>
<text text-anchor="middle" x="302.3553" y="-718.357" font-family="Times,serif" font-size="14.00" fill="#000000"> PUT </text>
</g>
<!-- Energy -->
<g id="node5" class="node">
<title>Energy</title>
<ellipse fill="none" stroke="#000000" cx="401.3553" cy="-729.557" rx="45.011" ry="26.7407"/>
<text text-anchor="middle" x="401.3553" y="-733.357" font-family="Times,serif" font-size="14.00" fill="#000000">Energy: </text>
<text text-anchor="middle" x="401.3553" y="-718.357" font-family="Times,serif" font-size="14.00" fill="#000000"> PUT </text>
</g>
<!-- Masses -->
<g id="node6" class="node">
<title>Masses</title>
<ellipse fill="none" stroke="#000000" cx="510.3553" cy="-729.557" rx="45.9239" ry="26.7407"/>
<text text-anchor="middle" x="510.3553" y="-733.357" font-family="Times,serif" font-size="14.00" fill="#000000">Masses: </text>
<text text-anchor="middle" x="510.3553" y="-718.357" font-family="Times,serif" font-size="14.00" fill="#000000"> PUT </text>
</g>
<!-- Charges -->
<g id="node7" class="node">
<title>Charges</title>
<ellipse fill="none" stroke="#000000" cx="623.3553" cy="-729.557" rx="49.4949" ry="26.7407"/>
<text text-anchor="middle" x="623.3553" y="-733.357" font-family="Times,serif" font-size="14.00" fill="#000000">Charges: </text>
<text text-anchor="middle" x="623.3553" y="-718.357" font-family="Times,serif" font-size="14.00" fill="#000000"> PUT </text>
</g>
<!-- d1 -->
<g id="node8" class="node">
<title>d1</title>
<ellipse fill="#d3d3d3" stroke="#000000" cx="1174.3553" cy="-729.557" rx="65.5227" ry="37.4533"/>
<text text-anchor="middle" x="1174.3553" y="-740.857" font-family="Times,serif" font-size="14.00" fill="#000000">1 </text>
<text text-anchor="middle" x="1174.3553" y="-725.857" font-family="Times,serif" font-size="14.00" fill="#000000"> d1: </text>
<text text-anchor="middle" x="1174.3553" y="-710.857" font-family="Times,serif" font-size="14.00" fill="#000000"> DISTANCE </text>
</g>
<!-- disp -->
<g id="node9" class="node">
<title>disp</title>
<ellipse fill="#d3d3d3" stroke="#000000" cx="935.3553" cy="-498.8635" rx="76.2353" ry="37.4533"/>
<text text-anchor="middle" x="935.3553" y="-510.1635" font-family="Times,serif" font-size="14.00" fill="#000000">2 </text>
<text text-anchor="middle" x="935.3553" y="-495.1635" font-family="Times,serif" font-size="14.00" fill="#000000"> disp: </text>
<text text-anchor="middle" x="935.3553" y="-480.1635" font-family="Times,serif" font-size="14.00" fill="#000000"> DIFFERENCE </text>
</g>
<!-- d1&#45;&gt;disp -->
<g id="edge1" class="edge">
<title>d1&#45;&gt;disp</title>
<path fill="none" stroke="#0000ff" d="M1140.8718,-697.2371C1098.069,-655.922 1023.9457,-584.3749 977.3897,-539.4369"/>
<polygon fill="#0000ff" stroke="#0000ff" points="979.7892,-536.8885 970.1634,-532.4618 974.9277,-541.9251 979.7892,-536.8885"/>
<text text-anchor="middle" x="1089.8553" y="-610.5102" font-family="Times,serif" font-size="14.00" fill="#0000ff">d1</text>
</g>
<!-- ed_diff -->
<g id="node10" class="node">
<title>ed_diff</title>
<ellipse fill="#d3d3d3" stroke="#000000" cx="764.3553" cy="-498.8635" rx="76.2353" ry="37.4533"/>
<text text-anchor="middle" x="764.3553" y="-510.1635" font-family="Times,serif" font-size="14.00" fill="#000000">3 </text>
<text text-anchor="middle" x="764.3553" y="-495.1635" font-family="Times,serif" font-size="14.00" fill="#000000"> ed_diff: </text>
<text text-anchor="middle" x="764.3553" y="-480.1635" font-family="Times,serif" font-size="14.00" fill="#000000"> DIFFERENCE </text>
</g>
<!-- d1&#45;&gt;ed_diff -->
<g id="edge2" class="edge">
<title>d1&#45;&gt;ed_diff</title>
<path fill="none" stroke="#0000ff" d="M1125.4669,-704.35C1092.0175,-686.934 1046.7652,-663.0395 1007.3553,-641.0803 943.239,-605.3547 870.7372,-562.6113 821.7446,-533.3733"/>
<polygon fill="#0000ff" stroke="#0000ff" points="823.2572,-530.1999 812.8775,-528.0758 819.6671,-536.2092 823.2572,-530.1999"/>
<text text-anchor="middle" x="1014.8553" y="-610.5102" font-family="Times,serif" font-size="14.00" fill="#0000ff">d1</text>
</g>
<!-- nd_diff -->
<g id="node11" class="node">
<title>nd_diff</title>
<ellipse fill="#d3d3d3" stroke="#000000" cx="1277.3553" cy="-498.8635" rx="76.2353" ry="37.4533"/>
<text text-anchor="middle" x="1277.3553" y="-510.1635" font-family="Times,serif" font-size="14.00" fill="#000000">4 </text>
<text text-anchor="middle" x="1277.3553" y="-495.1635" font-family="Times,serif" font-size="14.00" fill="#000000"> nd_diff: </text>
<text text-anchor="middle" x="1277.3553" y="-480.1635" font-family="Times,serif" font-size="14.00" fill="#000000"> DIFFERENCE </text>
</g>
<!-- d1&#45;&gt;nd_diff -->
<g id="edge3" class="edge">
<title>d1&#45;&gt;nd_diff</title>
<path fill="none" stroke="#0000ff" d="M1165.4665,-692.4172C1158.6161,-654.7926 1154.0765,-596.3109 1179.3553,-554.3402 1186.1476,-543.063 1196.1468,-533.8801 1207.1961,-526.47"/>
<polygon fill="#0000ff" stroke="#0000ff" points="1209.1479,-529.3783 1215.8145,-521.1437 1205.4679,-523.4237 1209.1479,-529.3783"/>
<text text-anchor="middle" x="1172.8553" y="-610.5102" font-family="Times,serif" font-size="14.00" fill="#0000ff">d1</text>
</g>
<!-- md_diff -->
<g id="node12" class="node">
<title>md_diff</title>
<ellipse fill="#d3d3d3" stroke="#000000" cx="1106.3553" cy="-498.8635" rx="76.2353" ry="37.4533"/>
<text text-anchor="middle" x="1106.3553" y="-510.1635" font-family="Times,serif" font-size="14.00" fill="#000000">5 </text>
<text text-anchor="middle" x="1106.3553" y="-495.1635" font-family="Times,serif" font-size="14.00" fill="#000000"> md_diff: </text>
<text text-anchor="middle" x="1106.3553" y="-480.1635" font-family="Times,serif" font-size="14.00" fill="#000000"> DIFFERENCE </text>
</g>
<!-- d1&#45;&gt;md_diff -->
<g id="edge4" class="edge">
<title>d1&#45;&gt;md_diff</title>
<path fill="none" stroke="#0000ff" d="M1157.3512,-693.0927C1150.4669,-677.3395 1142.8613,-658.5476 1137.3553,-641.0803 1127.5784,-610.0632 1119.797,-574.2902 1114.4758,-546.3817"/>
<polygon fill="#0000ff" stroke="#0000ff" points="1117.9029,-545.6669 1112.6275,-536.4789 1111.0217,-546.9513 1117.9029,-545.6669"/>
<text text-anchor="middle" x="1144.8553" y="-610.5102" font-family="Times,serif" font-size="14.00" fill="#0000ff">d1</text>
</g>
<!-- 15 -->
<g id="node13" class="node">
<title>15</title>
<ellipse fill="none" stroke="#000000" cx="1908.3553" cy="-614.2102" rx="42.3529" ry="26.7407"/>
<text text-anchor="middle" x="1908.3553" y="-618.0102" font-family="Times,serif" font-size="14.00" fill="#000000">@15: </text>
<text text-anchor="middle" x="1908.3553" y="-603.0102" font-family="Times,serif" font-size="14.00" fill="#000000"> PRINT</text>
</g>
<!-- d1&#45;&gt;15 -->
<g id="edge5" class="edge">
<title>d1&#45;&gt;15</title>
<path fill="none" stroke="#0000ff" d="M1239.409,-724.0176C1386.7119,-711.0068 1741.8287,-676.8815 1856.3553,-641.0803 1860.1743,-639.8865 1864.0487,-638.4242 1867.871,-636.8044"/>
<polygon fill="#0000ff" stroke="#0000ff" points="1869.5786,-639.8717 1877.2041,-632.5163 1866.6561,-633.5109 1869.5786,-639.8717"/>
<text text-anchor="middle" x="1781.8553" y="-662.8803" font-family="Times,serif" font-size="14.00" fill="#0000ff">d1</text>
</g>
<!-- clust -->
<g id="node14" class="node">
<title>clust</title>
<ellipse fill="none" stroke="#000000" cx="1462.3553" cy="-614.2102" rx="92.7622" ry="26.7407"/>
<text text-anchor="middle" x="1462.3553" y="-618.0102" font-family="Times,serif" font-size="14.00" fill="#000000">clust: </text>
<text text-anchor="middle" x="1462.3553" y="-603.0102" font-family="Times,serif" font-size="14.00" fill="#000000"> READ_CLUSTER </text>
</g>
<!-- d1&#45;&gt;clust -->
<g id="edge6" class="edge">
<title>d1&#45;&gt;clust</title>
<path fill="none" stroke="#0000ff" d="M1220.9478,-703.0837C1247.2422,-688.8308 1281.0197,-671.6477 1312.3553,-659.0803 1326.2951,-653.4897 1356.151,-644.3646 1385.5845,-635.7983"/>
<polygon fill="#0000ff" stroke="#0000ff" points="1386.894,-639.063 1395.5266,-632.9205 1384.9477,-632.339 1386.894,-639.063"/>
<text text-anchor="middle" x="1319.8553" y="-662.8803" font-family="Times,serif" font-size="14.00" fill="#0000ff">d1</text>
</g>
<!-- d1&#45;&gt;clust -->
<g id="edge7" class="edge">
<title>d1&#45;&gt;clust</title>
<path fill="none" stroke="#0000ff" d="M1230.6647,-710.1948C1259.7242,-699.9368 1295.6395,-686.845 1327.3553,-674.0803 1352.6574,-663.897 1380.2425,-651.8388 1403.8442,-641.2223"/>
<polygon fill="#0000ff" stroke="#0000ff" points="1405.3453,-644.3848 1413.0178,-637.0784 1402.4636,-638.0054 1405.3453,-644.3848"/>
<text text-anchor="middle" x="1367.8553" y="-662.8803" font-family="Times,serif" font-size="14.00" fill="#0000ff">d1</text>
</g>
<!-- 51 -->
<g id="node15" class="node">
<title>51</title>
<ellipse fill="none" stroke="#000000" cx="1024.3553" cy="-26.8701" rx="42.3529" ry="26.7407"/>
<text text-anchor="middle" x="1024.3553" y="-30.6701" font-family="Times,serif" font-size="14.00" fill="#000000">@51: </text>
<text text-anchor="middle" x="1024.3553" y="-15.6701" font-family="Times,serif" font-size="14.00" fill="#000000"> PRINT</text>
</g>
<!-- disp&#45;&gt;51 -->
<g id="edge8" class="edge">
<title>disp&#45;&gt;51</title>
<path fill="none" stroke="#0000ff" d="M929.9171,-461.4753C926.7421,-436.4641 923.3553,-402.7839 923.3553,-372.9102 923.3553,-372.9102 923.3553,-372.9102 923.3553,-142.2168 923.3553,-103.3803 956.1641,-71.3442 984.3831,-50.9723"/>
<polygon fill="#0000ff" stroke="#0000ff" points="986.7291,-53.6046 992.9519,-45.0298 982.74,-47.8525 986.7291,-53.6046"/>
<text text-anchor="middle" x="935.3553" y="-253.8635" font-family="Times,serif" font-size="14.00" fill="#0000ff">disp</text>
</g>
<!-- ed_diffT -->
<g id="node16" class="node">
<title>ed_diffT</title>
<ellipse fill="none" stroke="#000000" cx="728.3553" cy="-372.9102" rx="73.5782" ry="26.7407"/>
<text text-anchor="middle" x="728.3553" y="-376.7102" font-family="Times,serif" font-size="14.00" fill="#000000">ed_diffT: </text>
<text text-anchor="middle" x="728.3553" y="-361.7102" font-family="Times,serif" font-size="14.00" fill="#000000"> TRANSPOSE </text>
</g>
<!-- ed_diff&#45;&gt;ed_diffT -->
<g id="edge9" class="edge">
<title>ed_diff&#45;&gt;ed_diffT</title>
<path fill="none" stroke="#0000ff" d="M753.6516,-461.4144C748.983,-445.0804 743.5262,-425.9886 738.8783,-409.7269"/>
<polygon fill="#0000ff" stroke="#0000ff" points="742.2166,-408.6705 736.1031,-400.0174 735.4861,-410.5942 742.2166,-408.6705"/>
<text text-anchor="middle" x="767.8553" y="-432.1869" font-family="Times,serif" font-size="14.00" fill="#0000ff">ed_diff</text>
</g>
<!-- ed_2 -->
<g id="node17" class="node">
<title>ed_2</title>
<ellipse fill="none" stroke="#000000" cx="822.3553" cy="-257.5635" rx="36.5405" ry="26.7407"/>
<text text-anchor="middle" x="822.3553" y="-261.3635" font-family="Times,serif" font-size="14.00" fill="#000000">ed_2: </text>
<text text-anchor="middle" x="822.3553" y="-246.3635" font-family="Times,serif" font-size="14.00" fill="#000000"> DOT </text>
</g>
<!-- ed_diff&#45;&gt;ed_2 -->
<g id="edge10" class="edge">
<title>ed_diff&#45;&gt;ed_2</title>
<path fill="none" stroke="#0000ff" d="M787.2636,-462.6864C796.1175,-447.1376 805.5063,-428.4208 811.3553,-410.3869 824.2249,-370.7071 821.4595,-359.0476 824.3553,-317.4335 824.8715,-310.0156 824.9434,-302.0709 824.7788,-294.4725"/>
<polygon fill="#0000ff" stroke="#0000ff" points="828.2743,-294.2793 824.4274,-284.4076 821.2786,-294.5237 828.2743,-294.2793"/>
<text text-anchor="middle" x="842.8553" y="-369.2102" font-family="Times,serif" font-size="14.00" fill="#0000ff">ed_diff</text>
</g>
<!-- nd_diffT -->
<g id="node18" class="node">
<title>nd_diffT</title>
<ellipse fill="none" stroke="#000000" cx="1415.3553" cy="-372.9102" rx="73.5782" ry="26.7407"/>
<text text-anchor="middle" x="1415.3553" y="-376.7102" font-family="Times,serif" font-size="14.00" fill="#000000">nd_diffT: </text>
<text text-anchor="middle" x="1415.3553" y="-361.7102" font-family="Times,serif" font-size="14.00" fill="#000000"> TRANSPOSE </text>
</g>
<!-- nd_diff&#45;&gt;nd_diffT -->
<g id="edge11" class="edge">
<title>nd_diff&#45;&gt;nd_diffT</title>
<path fill="none" stroke="#0000ff" d="M1312.0472,-465.1826C1324.3446,-453.4149 1338.3564,-440.1989 1351.3553,-428.3869 1360.0248,-420.509 1369.4962,-412.1618 1378.431,-404.4004"/>
<polygon fill="#0000ff" stroke="#0000ff" points="1380.8377,-406.9464 1386.1109,-397.757 1376.2581,-401.6522 1380.8377,-406.9464"/>
<text text-anchor="middle" x="1372.3553" y="-432.1869" font-family="Times,serif" font-size="14.00" fill="#0000ff">nd_diff</text>
</g>
<!-- nd_sdiff -->
<g id="node19" class="node">
<title>nd_sdiff</title>
<ellipse fill="none" stroke="#000000" cx="1577.3553" cy="-372.9102" rx="70.0071" ry="37.4533"/>
<text text-anchor="middle" x="1577.3553" y="-384.2102" font-family="Times,serif" font-size="14.00" fill="#000000">nd_sdiff: </text>
<text text-anchor="middle" x="1577.3553" y="-369.2102" font-family="Times,serif" font-size="14.00" fill="#000000"> MATHEVAL</text>
<text text-anchor="middle" x="1577.3553" y="-354.2102" font-family="Times,serif" font-size="14.00" fill="#000000">FUNC=x*y </text>
</g>
<!-- nd_diff&#45;&gt;nd_sdiff -->
<g id="edge12" class="edge">
<title>nd_diff&#45;&gt;nd_sdiff</title>
<path fill="none" stroke="#0000ff" d="M1337.8052,-475.8309C1382.4618,-458.5336 1444.5766,-433.8809 1498.3553,-410.3869 1504.1066,-407.8744 1510.0607,-405.1959 1516.002,-402.4707"/>
<polygon fill="#0000ff" stroke="#0000ff" points="1517.6933,-405.5446 1525.2971,-398.1667 1514.752,-399.1925 1517.6933,-405.5446"/>
<text text-anchor="middle" x="1471.3553" y="-432.1869" font-family="Times,serif" font-size="14.00" fill="#0000ff">nd_diff</text>
</g>
<!-- md_diffT -->
<g id="node20" class="node">
<title>md_diffT</title>
<ellipse fill="none" stroke="#000000" cx="1107.3553" cy="-372.9102" rx="73.5782" ry="26.7407"/>
<text text-anchor="middle" x="1107.3553" y="-376.7102" font-family="Times,serif" font-size="14.00" fill="#000000">md_diffT: </text>
<text text-anchor="middle" x="1107.3553" y="-361.7102" font-family="Times,serif" font-size="14.00" fill="#000000"> TRANSPOSE </text>
</g>
<!-- md_diff&#45;&gt;md_diffT -->
<g id="edge13" class="edge">
<title>md_diff&#45;&gt;md_diffT</title>
<path fill="none" stroke="#0000ff" d="M1106.6554,-461.0734C1106.7837,-444.9054 1106.9332,-426.0857 1107.0609,-409.9961"/>
<polygon fill="#0000ff" stroke="#0000ff" points="1110.5617,-409.8999 1107.1413,-399.8724 1103.5619,-409.8443 1110.5617,-409.8999"/>
<text text-anchor="middle" x="1129.3553" y="-432.1869" font-family="Times,serif" font-size="14.00" fill="#0000ff">md_diff</text>
</g>
<!-- md_matvec -->
<g id="node21" class="node">
<title>md_matvec</title>
<ellipse fill="none" stroke="#000000" cx="1261.3553" cy="-372.9102" rx="62.8651" ry="26.7407"/>
<text text-anchor="middle" x="1261.3553" y="-376.7102" font-family="Times,serif" font-size="14.00" fill="#000000">md_matvec: </text>
<text text-anchor="middle" x="1261.3553" y="-361.7102" font-family="Times,serif" font-size="14.00" fill="#000000"> DOT </text>
</g>
<!-- md_diff&#45;&gt;md_matvec -->
<g id="edge14" class="edge">
<title>md_diff&#45;&gt;md_matvec</title>
<path fill="none" stroke="#0000ff" d="M1145.8694,-466.7543C1169.7788,-447.3255 1200.0965,-422.6892 1223.6685,-403.5346"/>
<polygon fill="#0000ff" stroke="#0000ff" points="1226.1497,-406.0283 1231.7033,-397.0056 1221.7352,-400.5957 1226.1497,-406.0283"/>
<text text-anchor="middle" x="1211.3553" y="-432.1869" font-family="Times,serif" font-size="14.00" fill="#0000ff">md_diff</text>
</g>
<!-- md_vdot -->
<g id="node22" class="node">
<title>md_vdot</title>
<ellipse fill="none" stroke="#000000" cx="1017.3553" cy="-257.5635" rx="52.1524" ry="26.7407"/>
<text text-anchor="middle" x="1017.3553" y="-261.3635" font-family="Times,serif" font-size="14.00" fill="#000000">md_vdot: </text>
<text text-anchor="middle" x="1017.3553" y="-246.3635" font-family="Times,serif" font-size="14.00" fill="#000000"> DOT </text>
</g>
<!-- md_diff&#45;&gt;md_vdot -->
<g id="edge15" class="edge">
<title>md_diff&#45;&gt;md_vdot</title>
<path fill="none" stroke="#0000ff" d="M1055.7037,-470.527C1023.7963,-451.4922 987.0436,-426.9543 978.3553,-410.3869 958.5628,-372.6451 977.2511,-324.3089 994.9464,-292.2099"/>
<polygon fill="#0000ff" stroke="#0000ff" points="998.1732,-293.6192 1000.1196,-283.2046 992.1034,-290.1323 998.1732,-293.6192"/>
<text text-anchor="middle" x="1001.3553" y="-369.2102" font-family="Times,serif" font-size="14.00" fill="#0000ff">md_diff</text>
</g>
<!-- clust&#45;&gt;disp -->
<g id="edge16" class="edge">
<title>clust&#45;&gt;disp</title>
<path fill="none" stroke="#0000ff" d="M1396.2143,-595.3739C1385.9084,-592.5879 1375.362,-589.8225 1365.3553,-587.3402 1329.1408,-578.3565 1317.0787,-585.3067 1283.3553,-569.3402 1273.6313,-564.7363 1274.3818,-558.2419 1264.3553,-554.3402 1163.4318,-515.0662 1126.4839,-562.3401 1021.3553,-536.3402 1013.9072,-534.4982 1006.288,-532.065 998.813,-529.3206"/>
<polygon fill="#0000ff" stroke="#0000ff" points="1000.0347,-526.0405 989.4454,-525.699 997.5105,-532.5695 1000.0347,-526.0405"/>
<text text-anchor="middle" x="1315.8553" y="-558.1402" font-family="Times,serif" font-size="14.00" fill="#0000ff">clust.center</text>
</g>
<!-- clust&#45;&gt;ed_diff -->
<g id="edge17" class="edge">
<title>clust&#45;&gt;ed_diff</title>
<path fill="none" stroke="#0000ff" d="M1398.2788,-594.7965C1387.3672,-591.9702 1376.0916,-589.3435 1365.3553,-587.3402 1252.3023,-566.2454 961.6455,-565.3311 850.3553,-536.3402 842.9306,-534.4061 835.3262,-531.9147 827.8597,-529.1366"/>
<polygon fill="#0000ff" stroke="#0000ff" points="829.088,-525.8589 818.4997,-525.4848 826.5436,-532.3802 829.088,-525.8589"/>
<text text-anchor="middle" x="1198.8553" y="-558.1402" font-family="Times,serif" font-size="14.00" fill="#0000ff">clust.center</text>
</g>
<!-- clust&#45;&gt;nd_diff -->
<g id="edge18" class="edge">
<title>clust&#45;&gt;nd_diff</title>
<path fill="none" stroke="#0000ff" d="M1457.8124,-587.2195C1454.6453,-575.7705 1449.3095,-563.0811 1440.3553,-554.3402 1418.8291,-533.3265 1389.0384,-520.2611 1360.8073,-512.1422"/>
<polygon fill="#0000ff" stroke="#0000ff" points="1361.4692,-508.6957 1350.9028,-509.4718 1359.6469,-515.4544 1361.4692,-508.6957"/>
<text text-anchor="middle" x="1482.8553" y="-558.1402" font-family="Times,serif" font-size="14.00" fill="#0000ff">clust.center</text>
</g>
<!-- clust&#45;&gt;md_diff -->
<g id="edge19" class="edge">
<title>clust&#45;&gt;md_diff</title>
<path fill="none" stroke="#0000ff" d="M1411.7362,-591.5952C1398.3007,-584.9659 1384.0154,-577.3338 1371.3553,-569.3402 1362.2581,-563.5962 1362.3057,-558.4322 1352.3553,-554.3402 1286.1735,-527.1235 1261.4823,-554.8402 1192.3553,-536.3402 1184.9436,-534.3566 1177.3475,-531.834 1169.8857,-529.0379"/>
<polygon fill="#0000ff" stroke="#0000ff" points="1171.1177,-525.7616 1160.5301,-525.3699 1168.5625,-532.2786 1171.1177,-525.7616"/>
<text text-anchor="middle" x="1403.8553" y="-558.1402" font-family="Times,serif" font-size="14.00" fill="#0000ff">clust.center</text>
</g>
<!-- ed_diffT&#45;&gt;ed_2 -->
<g id="edge23" class="edge">
<title>ed_diffT&#45;&gt;ed_2</title>
<path fill="none" stroke="#ff0000" d="M744.0241,-346.4913C752.604,-332.8256 763.819,-316.1754 775.3553,-302.4335 780.1426,-296.731 785.5854,-290.9865 791.0275,-285.6006"/>
<polygon fill="#ff0000" stroke="#ff0000" points="793.6097,-287.9731 798.3865,-278.5162 788.7549,-282.9301 793.6097,-287.9731"/>
<text text-anchor="middle" x="799.8553" y="-306.2335" font-family="Times,serif" font-size="14.00" fill="#ff0000">ed_diffT</text>
</g>
<!-- ed -->
<g id="node25" class="node">
<title>ed</title>
<ellipse fill="none" stroke="#000000" cx="822.3553" cy="-142.2168" rx="72.6644" ry="37.4533"/>
<text text-anchor="middle" x="822.3553" y="-153.5168" font-family="Times,serif" font-size="14.00" fill="#000000">ed: </text>
<text text-anchor="middle" x="822.3553" y="-138.5168" font-family="Times,serif" font-size="14.00" fill="#000000"> MATHEVAL</text>
<text text-anchor="middle" x="822.3553" y="-123.5168" font-family="Times,serif" font-size="14.00" fill="#000000">FUNC=sqrt(x) </text>
</g>
<!-- ed_2&#45;&gt;ed -->
<g id="edge24" class="edge">
<title>ed_2&#45;&gt;ed</title>
<path fill="none" stroke="#ffa500" d="M822.3553,-230.5198C822.3553,-218.5277 822.3553,-204.0467 822.3553,-190.3114"/>
<polygon fill="#ffa500" stroke="#ffa500" points="825.8554,-190.0068 822.3553,-180.0068 818.8554,-190.0068 825.8554,-190.0068"/>
<text text-anchor="middle" x="836.3553" y="-201.4934" font-family="Times,serif" font-size="14.00" fill="#ffa500">ed_2</text>
</g>
<!-- nd_2 -->
<g id="node27" class="node">
<title>nd_2</title>
<ellipse fill="none" stroke="#000000" cx="1415.3553" cy="-257.5635" rx="36.5405" ry="26.7407"/>
<text text-anchor="middle" x="1415.3553" y="-261.3635" font-family="Times,serif" font-size="14.00" fill="#000000">nd_2: </text>
<text text-anchor="middle" x="1415.3553" y="-246.3635" font-family="Times,serif" font-size="14.00" fill="#000000"> DOT </text>
</g>
<!-- nd_diffT&#45;&gt;nd_2 -->
<g id="edge27" class="edge">
<title>nd_diffT&#45;&gt;nd_2</title>
<path fill="none" stroke="#ff0000" d="M1415.3553,-345.8665C1415.3553,-330.6814 1415.3553,-311.5053 1415.3553,-294.9059"/>
<polygon fill="#ff0000" stroke="#ff0000" points="1418.8554,-294.4377 1415.3553,-284.4377 1411.8554,-294.4378 1418.8554,-294.4377"/>
<text text-anchor="middle" x="1440.3553" y="-306.2335" font-family="Times,serif" font-size="14.00" fill="#ff0000">nd_diffT</text>
</g>
<!-- nd_sdiff&#45;&gt;nd_2 -->
<g id="edge28" class="edge">
<title>nd_sdiff&#45;&gt;nd_2</title>
<path fill="none" stroke="#0000ff" d="M1535.2146,-342.9053C1508.882,-324.156 1475.3685,-300.2938 1450.478,-282.5714"/>
<polygon fill="#0000ff" stroke="#0000ff" points="1452.2357,-279.5264 1442.0595,-276.5773 1448.1756,-285.2286 1452.2357,-279.5264"/>
<text text-anchor="middle" x="1519.8553" y="-306.2335" font-family="Times,serif" font-size="14.00" fill="#0000ff">nd_sdiff</text>
</g>
<!-- md_2 -->
<g id="node30" class="node">
<title>md_2</title>
<ellipse fill="none" stroke="#000000" cx="1127.3553" cy="-257.5635" rx="39.6962" ry="26.7407"/>
<text text-anchor="middle" x="1127.3553" y="-261.3635" font-family="Times,serif" font-size="14.00" fill="#000000">md_2: </text>
<text text-anchor="middle" x="1127.3553" y="-246.3635" font-family="Times,serif" font-size="14.00" fill="#000000"> DOT </text>
</g>
<!-- md_diffT&#45;&gt;md_2 -->
<g id="edge32" class="edge">
<title>md_diffT&#45;&gt;md_2</title>
<path fill="none" stroke="#ff0000" d="M1101.4388,-346.0999C1099.5075,-332.7834 1098.6852,-316.5615 1102.3553,-302.4335 1103.3083,-298.7654 1104.6338,-295.0785 1106.182,-291.4802"/>
<polygon fill="#ff0000" stroke="#ff0000" points="1109.4533,-292.7575 1110.6971,-282.2359 1103.1634,-289.6853 1109.4533,-292.7575"/>
<text text-anchor="middle" x="1129.3553" y="-306.2335" font-family="Times,serif" font-size="14.00" fill="#ff0000">md_diffT</text>
</g>
<!-- md_matvec&#45;&gt;md_vdot -->
<g id="edge33" class="edge">
<title>md_matvec&#45;&gt;md_vdot</title>
<path fill="none" stroke="#0000ff" d="M1225.2812,-350.7164C1209.6989,-340.8553 1191.3997,-328.9023 1175.3553,-317.4335 1166.6027,-311.177 1166.0546,-307.0895 1156.3553,-302.4335 1124.2815,-287.0372 1112.1174,-295.6541 1078.3553,-284.4335 1074.1017,-283.0199 1069.7387,-281.4188 1065.3969,-279.7195"/>
<polygon fill="#0000ff" stroke="#0000ff" points="1066.5577,-276.4131 1055.9764,-275.877 1063.9139,-282.8946 1066.5577,-276.4131"/>
<text text-anchor="middle" x="1208.3553" y="-306.2335" font-family="Times,serif" font-size="14.00" fill="#0000ff">md_matvec</text>
</g>
<!-- md_matvec&#45;&gt;md_2 -->
<g id="edge34" class="edge">
<title>md_matvec&#45;&gt;md_2</title>
<path fill="none" stroke="#0000ff" d="M1261.1548,-345.7337C1259.6975,-331.3531 1255.6417,-314.2727 1245.3553,-302.4335 1227.872,-282.311 1200.3665,-271.1809 1176.3082,-265.0406"/>
<polygon fill="#0000ff" stroke="#0000ff" points="1176.7805,-261.5571 1166.2478,-262.7028 1175.1961,-268.3755 1176.7805,-261.5571"/>
<text text-anchor="middle" x="1287.3553" y="-306.2335" font-family="Times,serif" font-size="14.00" fill="#0000ff">md_matvec</text>
</g>
<!-- met -->
<g id="node23" class="node">
<title>met</title>
<ellipse fill="none" stroke="#000000" cx="1710.3553" cy="-614.2102" rx="137.3577" ry="26.7407"/>
<text text-anchor="middle" x="1710.3553" y="-618.0102" font-family="Times,serif" font-size="14.00" fill="#000000">met: </text>
<text text-anchor="middle" x="1710.3553" y="-603.0102" font-family="Times,serif" font-size="14.00" fill="#000000"> CALCULATE_REFERENCE </text>
</g>
<!-- met&#45;&gt;md_matvec -->
<g id="edge21" class="edge">
<title>met&#45;&gt;md_matvec</title>
<path fill="none" stroke="#ff0000" d="M1641.6853,-590.7606C1612.1741,-578.1246 1578.9025,-560.1609 1554.3553,-536.3402 1515.2683,-498.4099 1541.5052,-458.8498 1496.3553,-428.3869 1465.9629,-407.8808 1367.4082,-421.1338 1332.3553,-410.3869 1323.5477,-407.6865 1314.5554,-403.8825 1306.0608,-399.7246"/>
<polygon fill="#ff0000" stroke="#ff0000" points="1307.5656,-396.5629 1297.071,-395.1095 1304.3687,-402.7902 1307.5656,-396.5629"/>
<text text-anchor="middle" x="1564.8553" y="-495.1635" font-family="Times,serif" font-size="14.00" fill="#ff0000">met</text>
</g>
<!-- diag -->
<g id="node24" class="node">
<title>diag</title>
<ellipse fill="none" stroke="#000000" cx="1709.3553" cy="-498.8635" rx="125.316" ry="26.7407"/>
<text text-anchor="middle" x="1709.3553" y="-502.6635" font-family="Times,serif" font-size="14.00" fill="#000000">diag: </text>
<text text-anchor="middle" x="1709.3553" y="-487.6635" font-family="Times,serif" font-size="14.00" fill="#000000"> SELECT_COMPONENTS </text>
</g>
<!-- met&#45;&gt;diag -->
<g id="edge20" class="edge">
<title>met&#45;&gt;diag</title>
<path fill="none" stroke="#ff0000" d="M1710.1209,-587.1666C1709.9892,-571.9814 1709.823,-552.8053 1709.6791,-536.206"/>
<polygon fill="#ff0000" stroke="#ff0000" points="1713.175,-535.707 1709.5883,-525.7378 1706.1752,-535.7678 1713.175,-535.707"/>
<text text-anchor="middle" x="1719.8553" y="-558.1402" font-family="Times,serif" font-size="14.00" fill="#ff0000">met</text>
</g>
<!-- diag&#45;&gt;nd_sdiff -->
<g id="edge22" class="edge">
<title>diag&#45;&gt;nd_sdiff</title>
<path fill="none" stroke="#0000ff" d="M1681.6838,-472.4596C1663.6393,-455.2417 1639.7453,-432.4422 1619.3774,-413.0073"/>
<polygon fill="#0000ff" stroke="#0000ff" points="1621.7013,-410.3871 1612.0503,-406.0158 1616.8689,-415.4515 1621.7013,-410.3871"/>
<text text-anchor="middle" x="1658.8553" y="-432.1869" font-family="Times,serif" font-size="14.00" fill="#0000ff">diag</text>
</g>
<!-- ed&#45;&gt;51 -->
<g id="edge25" class="edge">
<title>ed&#45;&gt;51</title>
<path fill="none" stroke="#ffa500" d="M852.1413,-107.6949C864.4866,-95.0254 879.5986,-81.4284 895.3553,-71.7401 919.6961,-56.7739 949.7049,-45.9553 974.6522,-38.6957"/>
<polygon fill="#ffa500" stroke="#ffa500" points="975.611,-42.062 984.2944,-35.9915 973.7207,-35.322 975.611,-42.062"/>
<text text-anchor="middle" x="902.3553" y="-75.5401" font-family="Times,serif" font-size="14.00" fill="#ffa500">ed</text>
</g>
<!-- 52 -->
<g id="node26" class="node">
<title>52</title>
<ellipse fill="none" stroke="#000000" cx="822.3553" cy="-26.8701" rx="72.6644" ry="26.7407"/>
<text text-anchor="middle" x="822.3553" y="-30.6701" font-family="Times,serif" font-size="14.00" fill="#000000">@52: </text>
<text text-anchor="middle" x="822.3553" y="-15.6701" font-family="Times,serif" font-size="14.00" fill="#000000"> BIASVALUE </text>
</g>
<!-- ed&#45;&gt;52 -->
<g id="edge26" class="edge">
<title>ed&#45;&gt;52</title>
<path fill="none" stroke="#ffa500" d="M822.3553,-104.4479C822.3553,-91.3833 822.3553,-76.7654 822.3553,-63.7713"/>
<polygon fill="#ffa500" stroke="#ffa500" points="825.8554,-63.759 822.3553,-53.7591 818.8554,-63.7591 825.8554,-63.759"/>
<text text-anchor="middle" x="829.3553" y="-75.5401" font-family="Times,serif" font-size="14.00" fill="#ffa500">ed</text>
</g>
<!-- nd -->
<g id="node28" class="node">
<title>nd</title>
<ellipse fill="none" stroke="#000000" cx="1327.3553" cy="-142.2168" rx="72.6644" ry="37.4533"/>
<text text-anchor="middle" x="1327.3553" y="-153.5168" font-family="Times,serif" font-size="14.00" fill="#000000">nd: </text>
<text text-anchor="middle" x="1327.3553" y="-138.5168" font-family="Times,serif" font-size="14.00" fill="#000000"> MATHEVAL</text>
<text text-anchor="middle" x="1327.3553" y="-123.5168" font-family="Times,serif" font-size="14.00" fill="#000000">FUNC=sqrt(x) </text>
</g>
<!-- nd_2&#45;&gt;nd -->
<g id="edge29" class="edge">
<title>nd_2&#45;&gt;nd</title>
<path fill="none" stroke="#ffa500" d="M1397.3349,-233.943C1386.7155,-220.0235 1372.9505,-201.981 1360.4417,-185.5849"/>
<polygon fill="#ffa500" stroke="#ffa500" points="1362.8864,-183.019 1354.0382,-177.1915 1357.3211,-187.2649 1362.8864,-183.019"/>
<text text-anchor="middle" x="1392.8553" y="-201.4934" font-family="Times,serif" font-size="14.00" fill="#ffa500">nd_2</text>
</g>
<!-- nd&#45;&gt;51 -->
<g id="edge30" class="edge">
<title>nd&#45;&gt;51</title>
<path fill="none" stroke="#ffa500" d="M1268.5746,-119.84C1210.7356,-97.8217 1123.601,-64.6511 1070.552,-44.4563"/>
<polygon fill="#ffa500" stroke="#ffa500" points="1071.649,-41.1289 1061.058,-40.8421 1069.1585,-47.6709 1071.649,-41.1289"/>
<text text-anchor="middle" x="1182.8553" y="-75.5401" font-family="Times,serif" font-size="14.00" fill="#ffa500">nd</text>
</g>
<!-- 53 -->
<g id="node29" class="node">
<title>53</title>
<ellipse fill="none" stroke="#000000" cx="1327.3553" cy="-26.8701" rx="72.6644" ry="26.7407"/>
<text text-anchor="middle" x="1327.3553" y="-30.6701" font-family="Times,serif" font-size="14.00" fill="#000000">@53: </text>
<text text-anchor="middle" x="1327.3553" y="-15.6701" font-family="Times,serif" font-size="14.00" fill="#000000"> BIASVALUE </text>
</g>
<!-- nd&#45;&gt;53 -->
<g id="edge31" class="edge">
<title>nd&#45;&gt;53</title>
<path fill="none" stroke="#ffa500" d="M1327.3553,-104.4479C1327.3553,-91.3833 1327.3553,-76.7654 1327.3553,-63.7713"/>
<polygon fill="#ffa500" stroke="#ffa500" points="1330.8554,-63.759 1327.3553,-53.7591 1323.8554,-63.7591 1330.8554,-63.759"/>
<text text-anchor="middle" x="1334.8553" y="-75.5401" font-family="Times,serif" font-size="14.00" fill="#ffa500">nd</text>
</g>
<!-- md -->
<g id="node31" class="node">
<title>md</title>
<ellipse fill="none" stroke="#000000" cx="1075.3553" cy="-142.2168" rx="72.6644" ry="37.4533"/>
<text text-anchor="middle" x="1075.3553" y="-153.5168" font-family="Times,serif" font-size="14.00" fill="#000000">md: </text>
<text text-anchor="middle" x="1075.3553" y="-138.5168" font-family="Times,serif" font-size="14.00" fill="#000000"> MATHEVAL</text>
<text text-anchor="middle" x="1075.3553" y="-123.5168" font-family="Times,serif" font-size="14.00" fill="#000000">FUNC=sqrt(x) </text>
</g>
<!-- md_2&#45;&gt;md -->
<g id="edge35" class="edge">
<title>md_2&#45;&gt;md</title>
<path fill="none" stroke="#ffa500" d="M1115.6855,-231.6774C1109.9377,-218.9275 1102.831,-203.1635 1096.1923,-188.4374"/>
<polygon fill="#ffa500" stroke="#ffa500" points="1099.2169,-186.6302 1091.9162,-178.9522 1092.8353,-189.5071 1099.2169,-186.6302"/>
<text text-anchor="middle" x="1121.3553" y="-201.4934" font-family="Times,serif" font-size="14.00" fill="#ffa500">md_2</text>
</g>
<!-- md&#45;&gt;51 -->
<g id="edge36" class="edge">
<title>md&#45;&gt;51</title>
<path fill="none" stroke="#ffa500" d="M1059.0784,-105.4032C1052.9202,-91.4752 1045.9325,-75.6712 1039.8483,-61.9105"/>
<polygon fill="#ffa500" stroke="#ffa500" points="1043.0467,-60.4889 1035.8017,-52.7584 1036.6445,-63.3196 1043.0467,-60.4889"/>
<text text-anchor="middle" x="1058.3553" y="-75.5401" font-family="Times,serif" font-size="14.00" fill="#ffa500">md</text>
</g>
</g>
</svg>
